<svg xmlns="http://www.w3.org/2000/svg" xmlns:xlink="http://www.w3.org/1999/xlink" width="548" height="196" viewBox="0 0 548 196">
  <defs>
    <clipPath id="clip-path">
      <rect id="Rectangle_14" data-name="Rectangle 14" width="50" height="50" transform="translate(0 0)" fill="none"/>
    </clipPath>
    <clipPath id="clip-path-2">
      <rect id="Rectangle_15" data-name="Rectangle 15" width="50" height="50" fill="none"/>
    </clipPath>
    <clipPath id="clip-path-3">
      <rect id="Rectangle_16" data-name="Rectangle 16" width="50" height="47.561" transform="translate(0 0)" fill="none"/>
    </clipPath>
  </defs>
  <g id="Group_32" data-name="Group 32" transform="translate(-26 -580)">
    <g id="Group_29" data-name="Group 29" transform="translate(9 -41)">
      <g id="Group_26" data-name="Group 26">
        <g id="Group_21" data-name="Group 21" transform="translate(79 674)">
          <g id="Group_20" data-name="Group 20" clip-path="url(#clip-path)">
            <path id="Path_1" data-name="Path 1" d="M28.788,20.454a1.515,1.515,0,0,0-1.515-1.515H21.212A1.515,1.515,0,0,0,19.7,20.454V41.666h9.091Zm12.879,3.031a1.516,1.516,0,0,0-1.516-1.516h-6.06a1.515,1.515,0,0,0-1.515,1.516V41.666h9.091Zm6.06,21.97H2.273a2.272,2.272,0,1,0,0,4.545H47.727a2.272,2.272,0,1,0,0-4.545M15.909,28.03a1.515,1.515,0,0,0-1.515-1.515H8.333A1.515,1.515,0,0,0,6.818,28.03V41.666h9.091Z" fill="#0059bc"/>
            <path id="Path_2" data-name="Path 2" d="M43.864.014,37.052.987a1.345,1.345,0,0,0-.761,2.282l1.575,1.574-5.5,5.5L23.343,3.492a2.276,2.276,0,0,0-2.816.055L6.134,15.378a2.273,2.273,0,0,0,2.885,3.513L22.026,8.2,31.2,15.157a2.271,2.271,0,0,0,2.98-.2l6.9-6.9L42.13,9.108a1.345,1.345,0,0,0,2.282-.761l.973-6.812A1.344,1.344,0,0,0,43.864.014" fill="#0059bc"/>
          </g>
        </g>
        <text id="Want_your_enterprise_to_grow_rapidly_" data-name="Want your enterprise to grow rapidly?" transform="translate(32 738)" font-size="16" font-family="Poppins-Medium, Poppins" font-weight="500"><tspan x="30.312" y="17">Want your </tspan><tspan x="20.912" y="39">enterprise to </tspan><tspan x="17.192" y="61">grow rapidly?</tspan></text>
      </g>
      <g id="Group_27" data-name="Group 27">
        <g id="Group_23" data-name="Group 23" transform="translate(266 674)">
          <g id="Group_22" data-name="Group 22" clip-path="url(#clip-path-2)">
            <path id="Path_3" data-name="Path 3" d="M47.6.027l-6.224,1.01A25.518,25.518,0,0,0,25.752,9.084l-6.975,7.644-9.505-.555a1.438,1.438,0,0,0-1.279.635L3.21,23.949a1.438,1.438,0,0,0,.6,2.11l6.746,3.066,10.319,10.32L23.944,46.2a1.439,1.439,0,0,0,2.1.6L33.3,41.99a1.434,1.434,0,0,0,.64-1.294l-.634-9.5,7.612-6.947A25.515,25.515,0,0,0,48.963,8.623L49.973,2.4A2.066,2.066,0,0,0,47.6.027M36.135,19.968a4.315,4.315,0,1,1,0-6.1,4.316,4.316,0,0,1,0,6.1" fill="#0057b8"/>
            <path id="Path_4" data-name="Path 4" d="M17.231,40.732,9.268,32.769a.566.566,0,0,0-.8-.009c-.433.417-1.028,1.005-1.241,1.217A25.571,25.571,0,0,0,0,50a25.563,25.563,0,0,0,16.023-7.231c.213-.213.8-.808,1.218-1.241a.566.566,0,0,0-.01-.8" fill="#0057b8"/>
          </g>
        </g>
        <text id="Want_to_develop_Applications_at_Lightning_Speed_" data-name="Want to develop Applications at Lightning Speed?" transform="translate(219 738)" font-size="16" font-family="Poppins-Medium, Poppins" font-weight="500"><tspan x="5.632" y="17">Want to develop </tspan><tspan x="10.992" y="39">Applications at </tspan><tspan x="2.888" y="61">Lightning Speed?</tspan></text>
      </g>
      <g id="Group_28" data-name="Group 28">
        <g id="Group_25" data-name="Group 25" transform="translate(453 675)">
          <g id="Group_24" data-name="Group 24" clip-path="url(#clip-path-3)">
            <path id="Path_5" data-name="Path 5" d="M22.59,36.586H6.678A6.678,6.678,0,0,0,0,43.264v3.688a.609.609,0,0,0,.609.609H28.658a.61.61,0,0,0,.61-.609V43.264a6.678,6.678,0,0,0-6.678-6.678m-8.066-3.305A8.19,8.19,0,1,0,6.333,25.09a8.19,8.19,0,0,0,8.191,8.191" fill="#0057b8"/>
            <path id="Path_6" data-name="Path 6" d="M47.561,0H26.829A2.439,2.439,0,0,0,24.39,2.439V19.512a1.221,1.221,0,0,0,1.225,1.222,1.2,1.2,0,0,0,.726-.246l2.277-1.707a2.435,2.435,0,0,1,1.463-.488h17.48A2.439,2.439,0,0,0,50,15.854V2.439A2.439,2.439,0,0,0,47.561,0M32.1,13.345a1.525,1.525,0,0,1-2.151-.148l-2.439-2.8a1.525,1.525,0,0,1-.076-1.908l2.439-3.3A1.524,1.524,0,0,1,32.323,7l-1.71,2.314,1.634,1.876a1.525,1.525,0,0,1-.148,2.151m7.785-8.061-2.358,8.537a1.525,1.525,0,0,1-1.468,1.118,1.553,1.553,0,0,1-.408-.055,1.524,1.524,0,0,1-1.063-1.875l2.358-8.537a1.525,1.525,0,0,1,2.939.812M46.957,9.8l-2.439,3.3a1.524,1.524,0,0,1-2.451-1.813l1.71-2.314L42.143,7.1a1.525,1.525,0,0,1,2.3-2l2.439,2.8A1.525,1.525,0,0,1,46.957,9.8" fill="#0057b8"/>
          </g>
        </g>
        <text id="Want_your_clients_to_be_happier_than_ever_" data-name="Want your clients to be happier than ever?" transform="translate(406 738)" font-size="16" font-family="Poppins-Medium, Poppins" font-weight="500"><tspan x="1.832" y="17">Want your clients </tspan><tspan x="17.816" y="39">to be happier </tspan><tspan x="29.28" y="61">than ever?</tspan></text>
      </g>
      <line id="Line_1" data-name="Line 1" y2="135" transform="translate(186.5 674)" fill="none" stroke="#707070" stroke-width="1"/>
      <line id="Line_2" data-name="Line 2" y2="135" transform="translate(386.5 674)" fill="none" stroke="#707070" stroke-width="1"/>
    </g>
    <g id="Group_31" data-name="Group 31">
      <g id="Rectangle_17" data-name="Rectangle 17" transform="translate(26 600)" fill="none" stroke="#707070" stroke-width="1">
        <rect width="548" height="176" rx="25" stroke="none"/>
        <rect x="0.5" y="0.5" width="547" height="175" rx="24.5" fill="none"/>
      </g>
      <g id="Group_30" data-name="Group 30">
        <rect id="Rectangle_18" data-name="Rectangle 18" width="81" height="40" transform="translate(260 580)" fill="#fff"/>
        <text id="Do_You" data-name="Do You" transform="translate(300 607)" fill="#0057b8" font-size="20" font-family="Poppins-SemiBold, Poppins" font-weight="600"><tspan x="-35.28" y="0">Do You</tspan></text>
      </g>
    </g>
  </g>
</svg>
